# AST/ASF file generated using VICON BodyLanguage
# -----------------------------------------------
:version 1.10
:name VICON
:units
  mass 1.0
  length 0.45
  angle deg
:documentation
   .ast/.asf automatically generated from VICON data using
   VICON BodyBuilder and BodyLanguage model FoxedUp or BRILLIANT.MOD
:root
   order TX TY TZ RX RY RZ
   axis XYZ
   position 0 0 0  
   orientation 0 0 0 
:bonedata
  begin
     id 1 
     name lhipjoint
     direction 0.690799 -0.707083 0.151096 
     length 2.54797 
     axis 0 0 0  XYZ
  end
  begin
     id 2 
     name lfemur
     direction 0.34202 -0.939693 0  
     length 7.21646  
     axis 0 0 20  XYZ
    dof rx ry rz
    limits (-160.0 20.0)
           (-70.0 70.0)
           (-60.0 70.0)
  end
  begin
     id 3 
     name ltibia
     direction 0.34202 -0.939693 0   
     length 8.16759   
     axis 0 0 20   XYZ
    dof rx
    limits (-10.0 170.0)
  end
  begin
     id 4 
     name lfoot
     direction 0.0487203 -0.133858 0.989802   
     length 1.93375   
     axis -90 7.62852e-016 20   XYZ
    dof rx rz
    limits (-45.0 90.0)
           (-70.0 20.0)
  end
  begin
     id 5 
     name ltoes
     direction 1.53453e-011 -4.21783e-011 1   
     length 0.979747   
     axis -90 7.62852e-016 20   XYZ
    dof rx
    limits (-90.0 20.0)
  end
  begin
     id 6 
     name rhipjoint
     direction -0.694693 -0.703425 0.150315   
     length 2.56122  
     axis 0 0 0  XYZ 
  end
  begin
     id 7 
     name rfemur
     direction -0.34202 -0.939693 0   
     length 7.36786   
     axis 0 0 -20   XYZ
    dof rx ry rz
    limits (-160.0 20.0)
           (-70.0 70.0)
           (-70.0 60.0)
  end
  begin
     id 8 
     name rtibia
     direction -0.34202 -0.939693 0   
     length 8.07288   
     axis 0 0 -20   XYZ
    dof rx
    limits (-10.0 170.0)
 end
 begin
     id 9 
     name rfoot
     direction -0.0428397 -0.117701 0.992125   
     length 1.88295  
     axis -90 -7.62852e-016 -20   XYZ
    dof rx rz
    limits (-45.0 90.0)
           (-20.0 70.0)
  end
  begin
     id 10 
     name rtoes
     direction -1.53456e-011 -4.2187e-011 1   
     length 0.955578   
     axis -90 -7.62852e-016 -20   XYZ
    dof rx
    limits (-90.0 20.0)
  end
  begin
     id 11 
     name lowerback
     direction 0.0288145 0.999398 -0.0193241   
     length 1.92149   
     axis 0 0 0   XYZ
    dof rx ry rz
    limits (-20.0 45.0)
           (-30.0 30.0)
           (-30.0 30.0)
  end
  begin
     id 12 
     name upperback
     direction 0.0233784 0.998099 0.0570278   
     length 1.90435   
     axis 0 0 0   XYZ
    dof rx ry rz
    limits (-20.0 45.0)
           (-30.0 30.0)
           (-30.0 30.0)
  end
  begin
     id 13 
     name thorax
     direction 0.0096694 0.997833 0.0650817   
     length 1.9111   
     axis 0 0 0   XYZ
    dof rx ry rz
    limits (-20.0 45.0)
           (-30.0 30.0)
           (-30.0 30.0)
  end
  begin
     id 14 
     name lowerneck
     direction 0.00516803 0.999916 0.0118722   
     length 1.74664   
     axis 0 0 0   XYZ
    dof rx ry rz
    limits (-20.0 45.0)
           (-30.0 30.0)
           (-30.0 30.0)
  end
  begin
     id 15 
     name upperneck
     direction -0.0510851 0.996117 -0.071696   
     length 1.68498   
     axis 0 0 0   XYZ
    dof rx ry rz
    limits (-20.0 45.0)
           (-30.0 30.0)
           (-30.0 30.0)
  end
  begin
     id 16
     name head
     direction -0.019188 0.999436 -0.0275702  
     length 1.83483  
     axis 0 0 0   XYZ
    dof rx ry rz
    limits (-20.0 45.0)
           (-30.0 30.0)
           (-30.0 30.0)
  end
  begin
     id 17 
     name lclavicle
     direction 0.967006 0.248456 -0.0562957  
     length 3.39395  
     axis 0 0 0   XYZ
    dof ry rz
    limits (-20.0 10.0)
           (0.0 20.0)
  end
  begin
     id 18 
     name lhumerus
     direction 1 -4.48962e-011 -5.62711e-019   
     length 5.24318   
     axis 180 -30 -90   XYZ
    dof rx ry rz
    limits (-60.0 90.0)
           (-90.0 90.0)
           (-90.0 90.0)
  end
  begin
     id 19
     name lradius
     direction 1 -4.48966e-011 7.90625e-027   
     length 2.98999   
     axis 180 -30 -90   XYZ
    dof rx
    limits (-10.0 170.0)
  end
  begin
     id 20
     name lwrist
     direction 1 -4.48959e-011 1.61068e-026   
     length 1.49499   
     axis -9.31229e-015 90 90   XYZ
    dof ry
    limits (-180.0 0.0)
 end
  begin
     id 21 
     name lhand
     direction 1 -4.49017e-011 3.22136e-026   
     length 0.726745   
     axis -2.0555e-014 90 90   XYZ
    dof rx rz
    limits (-90.0 90.0)
           (-45.0 45.0)
  end
  begin
     id 22 
     name lfingers
     direction 1 -4.4898e-011 6.44272e-026   
     length 0.58592   
     axis -4.11101e-014 90 90   XYZ
    dof rx
    limits (0.0 90.0)
  end
  begin
     id 23
     name lthumb
     direction 0.707107 -6.34922e-011 0.707107   
     length 0.841268   
     axis -90 45 2.85299e-015   XYZ
    dof rx rz
    limits (-45.0 45.0)
           (-45.0 45.0)
  end
  begin
     id 24 
     name rclavicle
     direction -0.972232 0.230238 0.0419005   
     length 3.40416  
     axis 0 0 0   XYZ 
    dof ry rz
    limits (-10.0 20.0)
           (-20.0 0.0)
  end
  begin
     id 25 
     name rhumerus
     direction -1 -4.48976e-011 2.48487e-027  
     length 5.37045   
     axis 180 30 90   XYZ
    dof rx ry rz
    limits (-90.0 60.0)
           (-90.0 90.0)
           (-90.0 90.0)
  end
  begin
     id 26 
     name rradius
     direction -1 -4.48942e-011 7.87951e-027   
     length 2.92792   
     axis 180 30 90   XYZ
    dof rx
    limits (-10.0 170.0)
  end
  begin
     id 27 
     name rwrist
     direction -1 -4.48969e-011 1.61068e-026   
     length 1.46396   
     axis -9.31229e-015 -90 -90   XYZ
    dof ry
    limits (-180.0 0.0)
  end
  begin
     id 28
     name rhand
     direction -1 -4.49043e-011 3.22136e-026   
     length 0.784497   
     axis -2.0555e-014 -90 -90   XYZ
    dof rx rz
    limits (-90.0 90.0)
           (-45.0 45.0)
  end
  begin
     id 29
     name rfingers
     direction -1 -4.48823e-011 6.44272e-026   
     length 0.632482   
     axis -4.11101e-014 -90 -90   XYZ
    dof rx
    limits (0.0 90.0)
  end
  begin
     id 30
     name rthumb
     direction -0.707107 -6.34923e-011 0.707107   
     length 0.908121   
     axis -90 -45 -2.85299e-015   XYZ
    dof rx rz
    limits (-45.0 45.0)
           (-45.0 45.0)
  end
:hierarchy
  begin
    root lhipjoint rhipjoint lowerback
    lhipjoint lfemur
    lfemur ltibia
    ltibia lfoot
    lfoot ltoes
    rhipjoint rfemur
    rfemur rtibia
    rtibia rfoot
    rfoot rtoes
    lowerback upperback
    upperback thorax
    thorax lowerneck lclavicle rclavicle
    lowerneck upperneck
    upperneck head
    lclavicle lhumerus
    lhumerus lradius
    lradius lwrist
    lwrist lhand lthumb
    lhand lfingers
    rclavicle rhumerus
    rhumerus rradius
    rradius rwrist
    rwrist rhand rthumb
    rhand rfingers
  end

#!OML:ASF E:\Style6\Style6.ASF
:FULLY-SPECIFIED
:DEGREES
1385
root 0.330371 17.8025 -0.0568384 11.4869 -2.39863 0.198169
lowerback 8.08417 -0.337184 6.72565
upperback -1.6709 0.659438 6.75338
thorax -6.3398 0.20851 3.25747
lowerneck 0.502177 2.92589 8.01148
upperneck -3.08924 3.69377 -14.725
head -0.53874 1.93831 -5.77389
rclavicle 3.97569e-016 -3.49861e-014
rhumerus -10.3616 -20.2844 -43.8483
rradius 96.7249
rwrist 7.36719
rhand -4.74985 -2.0312
rfingers 7.12502
rthumb 21.0337 -30.9105
lclavicle 3.97569e-016 -3.49861e-014
lhumerus -25.0118 11.0904 59.0621
lradius 90.2416
lwrist 23.2374
lhand -26.5489 35.262
lfingers 7.12502
lthumb 0.0156001 65.2418
rfemur -28.4645 -0.32192 17.9452
rtibia 32.0488
rfoot -9.12778 -2.8931
rtoes -16.8755
lfemur -26.3135 0.515884 -18.2056
ltibia 32.7264
lfoot -11.5683 4.95354
ltoes -21.3285
1386
root 0.330825 17.7984 -0.0577592 11.5262 -2.39032 0.289478
lowerback 8.03818 -0.323759 6.72131
upperback -1.72593 0.679162 6.78871
thorax -6.37323 0.218239 3.29605
lowerneck 0.357378 2.97028 7.97713
upperneck -2.93288 3.76035 -14.8767
head -0.458695 1.96454 -5.81012
rclavicle -2.38542e-014 3.18055e-014
rhumerus -9.86629 -20.3204 -43.2847
rradius 96.3421
rwrist 7.53692
rhand -4.39504 -1.96155
rfingers 7.12502
rthumb 21.3746 -30.8026
lclavicle -2.38542e-014 3.18055e-014
lhumerus -24.9684 11.3862 58.7203
lradius 89.6534
lwrist 23.4867
lhand -26.4522 35.228
lfingers 7.12502
lthumb 0.108978 65.2077
rfemur -28.6029 -0.374224 17.8495
rtibia 32.207
rfoot -9.16907 -2.86705
rtoes -16.7231
lfemur -26.4011 0.650536 -18.327
ltibia 32.7654
lfoot -11.5705 4.83556
ltoes -21.9141
1387
root 0.330659 17.7934 -0.0584894 11.5636 -2.38909 0.361908
lowerback 7.95994 -0.303739 6.75955
upperback -1.76874 0.704917 6.79
thorax -6.37413 0.229122 3.27271
lowerneck 0.20915 3.01247 7.97308
upperneck -2.72329 3.83105 -14.9821
head -0.362668 1.99031 -5.83626
rclavicle 7.95139e-016 -2.22639e-014
rhumerus -9.43047 -20.3298 -42.7595
rradius 95.9616
rwrist 7.6079
rhand -4.18304 -1.99001
rfingers 7.12502
rthumb 21.5782 -30.8078
lclavicle 7.95139e-016 -2.22639e-014
lhumerus -24.934 11.5378 58.3346
lradius 89.1183
lwrist 23.8595
lhand -26.5489 35.4387
lfingers 7.12502
lthumb 0.0155733 65.4184
rfemur -28.73 -0.433906 17.7739
rtibia 32.3532
rfoot -9.21727 -2.80963
rtoes -16.2163
lfemur -26.5054 0.816936 -18.4269
ltibia 32.86
lfoot -11.6517 4.67154
ltoes -21.8973
1388
root 0.330261 17.7875 -0.0599579 11.6514 -2.37085 0.352145
lowerback 7.86318 -0.297416 6.86224
upperback -1.82143 0.71873 6.8083
thorax -6.37483 0.231928 3.2334
lowerneck 0.0538378 3.06244 8.00564
upperneck -2.58432 3.90516 -15.1091
head -0.283996 2.01884 -5.87604
rclavicle -2.78299e-015 -5.725e-014
rhumerus -8.95884 -20.3067 -42.2987
rradius 95.5697
rwrist 7.65013
rhand -3.98455 -2.08206
rfingers 7.12502
rthumb 21.7688 -30.8779
lclavicle -2.78299e-015 -5.725e-014
lhumerus -24.959 11.6947 57.8772
lradius 88.6785
lwrist 24.3085
lhand -26.6545 36.1775
lfingers 7.12502
lthumb -0.0864202 66.1572
rfemur -28.9171 -0.532939 17.8069
rtibia 32.5001
rfoot -9.2301 -2.7672
rtoes -16.1301
lfemur -26.6811 0.938349 -18.4202
ltibia 32.9761
lfoot -11.7476 4.43082
ltoes -21.0692
1389
root 0.32879 17.7806 -0.0619996 11.7138 -2.36073 0.308669
lowerback 7.85846 -0.309004 6.96623
upperback -1.88413 0.722295 6.85121
thorax -6.43968 0.22908 3.22295
lowerneck -0.0402041 3.13438 7.95877
upperneck -2.54969 4.00128 -15.1989
head -0.245507 2.06356 -5.89265
rclavicle 7.15625e-015 -4.77083e-014
rhumerus -8.42591 -20.3185 -41.8968
rradius 95.1416
rwrist 7.74508
rhand -3.62723 -2.06959
rfingers 7.12502
rthumb 22.1119 -30.8252
lclavicle 7.15625e-015 -4.77083e-014
lhumerus -25.0342 11.8922 57.4269
lradius 88.2515
lwrist 24.7176
lhand -26.6984 36.6006
lfingers 7.12502
lthumb -0.128763 66.5803
rfemur -29.0743 -0.655202 17.9009
rtibia 32.632
rfoot -9.25692 -2.75578
rtoes -17.8769
lfemur -26.8151 1.08455 -18.3756
ltibia 33.0982
lfoot -11.8635 4.22491
ltoes -20.8441
1390
root 0.327474 17.7776 -0.063449 11.761 -2.37153 0.33699
lowerback 7.88067 -0.300699 6.98969
upperback -1.94764 0.746186 6.87095
thorax -6.52102 0.238544 3.23021
lowerneck -0.139844 3.18712 7.89652
upperneck -2.47999 4.07507 -15.266
head -0.19952 2.09587 -5.89921
rclavicle -4.77083e-015 4.45278e-014
rhumerus -7.97686 -20.356 -41.4122
rradius 94.7529
rwrist 7.78885
rhand -3.12267 -1.96887
rfingers 7.12502
rthumb 22.5962 -30.6663
lclavicle -4.77083e-015 4.45278e-014
lhumerus -25.0586 12.0525 57.0248
lradius 87.7921
lwrist 25.0164
lhand -26.7255 36.5293
lfingers 7.12502
lthumb -0.154996 66.509
rfemur -29.2053 -0.807404 17.9143
rtibia 32.7492
rfoot -9.26198 -2.66222
rtoes -18.975
lfemur -26.9296 1.29547 -18.4339
ltibia 33.2178
lfoot -11.945 4.06305
ltoes -20.9176
1391
root 0.325899 17.7754 -0.0656523 11.7916 -2.3806 0.290904
lowerback 7.90001 -0.299154 7.09686
upperback -1.96738 0.764759 6.88895
thorax -6.55321 0.243095 3.18833
lowerneck -0.301345 3.24338 7.89391
upperneck -2.41516 4.15077 -15.3405
head -0.142736 2.12628 -5.91702
rclavicle -3.18055e-014 3.18055e-015
rhumerus -7.49072 -20.366 -40.9749
rradius 94.3197
rwrist 7.66666
rhand -2.8211 -1.95083
rfingers 7.12502
rthumb 22.8856 -30.6128
lclavicle -3.18055e-014 3.18055e-015
lhumerus -25.0008 12.2994 56.5825
lradius 87.3285
lwrist 25.3288
lhand -26.8555 36.4201
lfingers 7.12502
lthumb -0.280524 66.3997
rfemur -29.3108 -0.863671 17.9865
rtibia 32.8715
rfoot -9.26158 -2.60638
rtoes -19.2734
lfemur -27.0384 1.47224 -18.3996
ltibia 33.3173
lfoot -12.007 3.92101
ltoes -20.8017
1392
root 0.323432 17.7706 -0.0683923 11.8367 -2.40009 0.275124
lowerback 7.89876 -0.290568 7.1623
upperback -1.98464 0.783894 6.87876
thorax -6.57044 0.249171 3.13894
lowerneck -0.480963 3.29097 7.87206
upperneck -2.33061 4.21658 -15.3359
head -0.0808473 2.15004 -5.90635
rclavicle 2.18663e-014 -9.54166e-015
rhumerus -7.0319 -20.3814 -40.5654
rradius 93.8817
rwrist 7.5111
rhand -2.70562 -1.9972
rfingers 7.12502
rthumb 22.9965 -30.6454
lclavicle 2.18663e-014 -9.54166e-015
lhumerus -24.9372 12.5092 56.116
lradius 86.909
lwrist 25.5745
lhand -26.7687 36.4506
lfingers 7.12502
lthumb -0.196734 66.4302
rfemur -29.4274 -0.928318 18.0236
rtibia 32.9886
rfoot -9.32976 -2.50203
rtoes -18.9073
lfemur -27.1596 1.63925 -18.3965
ltibia 33.4009
lfoot -12.0368 3.7998
ltoes -20.7768
1393
root 0.319963 17.7654 -0.073269 11.8241 -2.38264 0.330485
lowerback 7.99308 -0.299337 7.11355
upperback -1.98663 0.7791 6.87865
thorax -6.62721 0.247886 3.16809
lowerneck -0.630317 3.31203 7.78055
upperneck -2.36447 4.23471 -15.3458
head -0.0650068 2.1549 -5.8911
rclavicle -1.15295e-014 8.5875e-014
rhumerus -6.50459 -20.406 -40.1251
rradius 93.3838
rwrist 7.43755
rhand -2.5401 -1.94243
rfingers 7.12502
rthumb 23.1553 -30.5708
lclavicle -1.15295e-014 8.5875e-014
lhumerus -24.902 12.6532 55.6895
lradius 86.5552
lwrist 25.7879
lhand -26.6756 36.7229
lfingers 7.12502
lthumb -0.106814 66.7026
rfemur -29.5046 -1.08416 18.008
rtibia 33.105
rfoot -9.39182 -2.3634
rtoes -18.6516
lfemur -27.2136 1.7544 -18.4623
ltibia 33.4719
lfoot -12.0064 3.69296
ltoes -21.3546
1394
root 0.31637 17.7605 -0.0767937 11.8249 -2.30381 0.380268
lowerback 8.03786 -0.31542 7.08306
upperback -1.98143 0.759374 6.87399
thorax -6.64745 0.239159 3.18328
lowerneck -0.780976 3.31917 7.69235
upperneck -2.41022 4.23285 -15.3429
head -0.0550236 2.14997 -5.87291
rclavicle 7.55382e-015 4.45278e-014
rhumerus -5.96816 -20.4291 -39.6748
rradius 92.8439
rwrist 7.4817
rhand -2.33348 -1.96457
rfingers 7.12502
rthumb 23.3535 -30.5679
lclavicle 7.55382e-015 4.45278e-014
lhumerus -24.8465 12.8284 55.3113
lradius 86.1936
lwrist 25.7265
lhand -26.5303 36.8736
lfingers 7.12502
lthumb 0.0335996 66.8534
rfemur -29.5806 -1.22594 17.9918
rtibia 33.2268
rfoot -9.44229 -2.29713
rtoes -18.3144
lfemur -27.2783 1.81895 -18.5065
ltibia 33.5314
lfoot -11.9853 3.49195
ltoes -21.229
